<?xml version="1.0" encoding="UTF-8"?>
<svg xmlns="http://www.w3.org/2000/svg" viewBox="0 0 176 176" width="512" height="512"><g id="Layer_2" data-name="Layer 2"><g id="_07.instagram" data-name="07.instagram"><path d="M110.23,44.07H65.77a21.69,21.69,0,0,0-21.7,21.69v44.46a21.69,21.69,0,0,0,21.7,21.7h44.46a21.69,21.69,0,0,0,21.7-21.7V65.76A21.69,21.69,0,0,0,110.23,44.07ZM88,116.45A28.45,28.45,0,1,1,116.45,88,28.49,28.49,0,0,1,88,116.45Zm28.61-49.88a7,7,0,1,1,7-7A7,7,0,0,1,116.61,66.57ZM88,70.61A17.39,17.39,0,1,0,105.39,88,17.39,17.39,0,0,0,88,70.61Zm22.23-26.54H65.77a21.69,21.69,0,0,0-21.7,21.69v44.46a21.69,21.69,0,0,0,21.7,21.7h44.46a21.69,21.69,0,0,0,21.7-21.7V65.76A21.69,21.69,0,0,0,110.23,44.07ZM88,116.45A28.45,28.45,0,1,1,116.45,88,28.49,28.49,0,0,1,88,116.45Zm28.61-49.88a7,7,0,1,1,7-7A7,7,0,0,1,116.61,66.57ZM88,70.61A17.39,17.39,0,1,0,105.39,88,17.39,17.39,0,0,0,88,70.61Zm85-39.14A32.06,32.06,0,0,0,144.52,3a532.59,532.59,0,0,0-113,0A32.06,32.06,0,0,0,3,31.47a532.59,532.59,0,0,0,0,113A32.06,32.06,0,0,0,31.48,173a530,530,0,0,0,113,0A32.06,32.06,0,0,0,173,144.51,532.59,532.59,0,0,0,173,31.47Zm-30,78.75A32.8,32.8,0,0,1,110.23,143H65.77A32.81,32.81,0,0,1,33,110.22V65.76A32.8,32.8,0,0,1,65.77,33h44.46A32.8,32.8,0,0,1,143,65.76ZM110.23,44.07H65.77a21.69,21.69,0,0,0-21.7,21.69v44.46a21.69,21.69,0,0,0,21.7,21.7h44.46a21.69,21.69,0,0,0,21.7-21.7V65.76A21.69,21.69,0,0,0,110.23,44.07ZM88,116.45A28.45,28.45,0,1,1,116.45,88,28.49,28.49,0,0,1,88,116.45Zm28.61-49.88a7,7,0,1,1,7-7A7,7,0,0,1,116.61,66.57ZM88,70.61A17.39,17.39,0,1,0,105.39,88,17.39,17.39,0,0,0,88,70.61Z"/></g></g></svg>
