<?xml version="1.0" encoding="UTF-8"?>
<svg id="Camada_2" data-name="Camada 2" xmlns="http://www.w3.org/2000/svg" viewBox="0 0 665.62 158.71">
  <defs>
    <style>
      .cls-1 {
        fill: #fff;
      }

      .cls-2 {
        fill: #f3d44b;
      }

      .cls-3 {
        fill: #caa928;
      }
    </style>
  </defs>
  <g id="Camada_1-2" data-name="Camada 1">
    <g>
      <g>
        <g>
          <path class="cls-1" d="M267.01,63.88l5.43,12.08h10.27l-24.25-53.87-17.7.17-24.17,53.69h10.27l5.43-12.08h34.73ZM248.06,28.75h3.19l12.62,28.06h-28.44l12.62-28.06Z"/>
          <polygon class="cls-1" points="331.22 22.08 309.62 49 287.94 22.08 276.43 22.08 304.89 56.62 304.89 75.96 314.43 75.96 314.43 56.54 342.74 22.08 331.22 22.08"/>
          <path class="cls-1" d="M462.71,63.88l5.44,12.08h10.26l-24.26-53.87h-17.61l-24.26,53.87h10.26l5.44-12.08h34.72ZM443.76,28.75h3.2l12.62,28.06h-28.44l12.62-28.06Z"/>
          <polygon class="cls-1" points="363 68.89 363 22.08 353.53 22.08 353.53 67.48 360.39 67.78 364.54 75.96 397.37 75.96 401.45 68.89 363 68.89"/>
        </g>
        <g>
          <path class="cls-2" d="M352.57,89.59l-.19-.17c-6.95-7.34-25.41-6.93-36.44-6.7h-.36s0,0,0,0c-9.97,0-17.63,2.29-22.81,6.8-4.78,3.7-7.71,11.37-7.71,20.07,0,8.73,2.92,16.42,7.64,20.06l.19.17c6.85,7.22,23.87,6.92,35.12,6.73l2.08-.04h0c9.7,0,17.22-2.29,22.4-6.8,4.79-3.71,7.71-11.39,7.71-20.12,0-8.7-2.93-16.37-7.63-20.01ZM350.25,114.79v.13c-1.8,13.38-14.36,14.74-25.24,14.74-1.43,0-2.84-.02-4.18-.05-1.44-.02-2.83-.04-4.17-.04-7.91.18-13.57-1.66-17.22-5.59-3.85-4.16-5.3-10.59-4.41-19.67,2.54-15.82,18.89-15.19,30.82-14.73,1.05.04,2.07.08,3.05.11h0c6.02,0,10.88,1.13,14.38,3.36,7.11,3.6,7.38,14.13,6.97,21.75Z"/>
          <polygon class="cls-2" points="506.14 90.08 506.14 83.12 447.71 83.12 447.71 136.13 506.14 136.13 506.14 129.17 457.02 129.17 457.02 112.75 501.58 112.75 501.58 105.79 457.02 105.79 457.02 90.08 506.14 90.08"/>
          <polygon class="cls-2" points="518.08 83.12 518.08 136.13 568.57 136.13 568.57 129.17 527.4 129.17 527.4 83.12 518.08 83.12"/>
          <rect class="cls-2" x="579.72" y="83.12" width="9.31" height="53"/>
          <path class="cls-2" d="M661.32,111.44c2.86-2.6,4.3-6.7,4.3-12.17s-1.45-9.57-4.3-12.17c-2.9-2.64-7.1-3.98-12.47-3.98h-45.51v53h9.31v-20.7h36.2c5.38,0,9.57-1.34,12.47-3.98ZM612.65,108.39v-18.31h34.7c2.72,0,4.88.71,6.42,2.12,1.58,1.45,2.38,3.83,2.38,7.08s-.8,5.55-2.37,7.02c-1.54,1.44-3.71,2.17-6.43,2.17l-34.7-.08Z"/>
          <path class="cls-2" d="M219.63,129.73c5.05,4.5,12.24,6.79,21.39,6.79h32.91v-28.92h-24.04l-4.02,6.95h18.74v15.01h-12.5l-15.16-.42c-4.4-.68-7.93-2.33-10.48-4.91-3.19-3.21-4.8-8.14-4.8-14.66,0-6.86,1.84-11.96,5.48-15.16,3.56-3.14,9.05-4.74,16.31-4.74h27.41v-6.95h-28.27c-9.98,0-17.66,2.29-22.82,6.8-5.12,4.48-6.3,10.15-6.49,17.29-.26,9.86.04,17.28,6.35,22.91Z"/>
          <polygon class="cls-2" points="435.37 83.12 412.02 83.12 401.4 89.25 390.8 83.12 369.38 83.12 369.38 90.09 396.14 90.08 396.14 136.13 405.46 136.13 405.46 90.08 435.37 90.09 435.37 83.12"/>
        </g>
        <g>
          <path class="cls-1" d="M486.04,58.2c-.23-.23-.35-.54-.35-.95v-12.34c0-.41.12-.73.35-.95.23-.23.55-.34.96-.34h7.64c.41,0,.73.09.95.28s.34.44.34.78-.11.62-.34.82-.54.29-.95.29h-6.29v4.11h5.86c.41,0,.73.09.95.28s.34.45.34.8-.11.6-.34.78-.54.27-.95.27h-5.86v4.36h6.29c.41,0,.73.1.95.29.23.19.34.46.34.81s-.11.6-.34.78-.54.27-.95.27h-7.64c-.41,0-.73-.11-.96-.34Z"/>
          <path class="cls-1" d="M514.63,43.88c.23.25.35.57.35.98v12.42c0,.41-.12.74-.36,1s-.55.38-.93.38c-.45,0-.8-.16-1.04-.49l-7.72-10.05v9.16c0,.41-.11.74-.34,1s-.54.38-.93.38-.71-.13-.93-.38c-.23-.25-.34-.59-.34-1v-12.42c0-.41.12-.74.36-.98.24-.25.56-.37.95-.37.44,0,.78.16,1.02.49l7.7,10.01v-9.14c0-.41.12-.74.35-.98.23-.25.54-.37.92-.37s.71.12.94.37Z"/>
          <path class="cls-1" d="M534.58,50.76c.2.19.3.44.3.75v4.55c0,.65-.08,1.11-.25,1.38-.17.27-.51.49-1.04.66-.56.2-1.22.35-1.97.47s-1.47.17-2.16.17c-1.54,0-2.87-.3-4-.91s-1.99-1.48-2.59-2.63c-.6-1.15-.9-2.52-.9-4.12s.3-2.92.9-4.07c.6-1.15,1.45-2.03,2.55-2.64,1.1-.61,2.4-.92,3.89-.92,1.99,0,3.62.54,4.89,1.61.17.15.29.31.37.47.08.15.12.34.12.55,0,.31-.08.57-.25.78s-.37.32-.61.32c-.15,0-.3-.02-.42-.07-.13-.05-.27-.13-.44-.24-.62-.44-1.2-.74-1.73-.92-.54-.18-1.14-.27-1.82-.27-1.54,0-2.7.46-3.48,1.37-.78.91-1.17,2.26-1.17,4.05,0,3.67,1.61,5.5,4.82,5.5.96,0,1.92-.13,2.88-.4v-3.75h-2.39c-.34,0-.6-.09-.79-.25-.19-.17-.29-.41-.29-.72s.09-.55.29-.72.45-.25.79-.25h3.75c.32,0,.59.09.78.29Z"/>
          <path class="cls-1" d="M542.52,58.2c-.23-.23-.35-.54-.35-.95v-12.34c0-.41.12-.73.35-.95s.55-.34.96-.34h7.64c.41,0,.73.09.95.28.23.18.34.44.34.78s-.11.62-.34.82c-.23.19-.54.29-.95.29h-6.29v4.11h5.86c.41,0,.73.09.95.28.23.18.34.45.34.8s-.11.6-.34.78c-.23.18-.54.27-.95.27h-5.86v4.36h6.29c.41,0,.73.1.95.29.23.19.34.46.34.81s-.11.6-.34.78c-.23.18-.54.27-.95.27h-7.64c-.41,0-.73-.11-.96-.34Z"/>
          <path class="cls-1" d="M571.11,43.88c.23.25.35.57.35.98v12.42c0,.41-.12.74-.36,1s-.55.38-.93.38c-.45,0-.8-.16-1.04-.49l-7.72-10.05v9.16c0,.41-.11.74-.34,1s-.54.38-.93.38-.71-.13-.93-.38c-.23-.25-.34-.59-.34-1v-12.42c0-.41.12-.74.36-.98.24-.25.56-.37.95-.37.44,0,.78.16,1.02.49l7.7,10.01v-9.14c0-.41.12-.74.35-.98.23-.25.54-.37.92-.37s.71.12.94.37Z"/>
          <path class="cls-1" d="M591.55,43.88c.24.25.36.57.36.98v12.42c0,.41-.12.74-.37,1-.25.25-.57.38-.96.38s-.73-.13-.97-.38c-.24-.25-.36-.59-.36-1v-5.23h-7.64v5.23c0,.41-.12.74-.37,1s-.57.38-.98.38-.72-.13-.96-.38c-.25-.25-.37-.59-.37-1v-12.42c0-.41.12-.74.36-.98.24-.25.56-.37.97-.37s.74.12.98.37c.25.25.37.57.37.98v4.99h7.64v-4.99c0-.41.12-.74.36-.98.24-.25.56-.37.97-.37s.73.12.97.37Z"/>
          <path class="cls-1" d="M613.01,57.46c0,.33-.13.6-.39.83s-.56.34-.9.34c-.23,0-.44-.06-.63-.18-.2-.12-.35-.31-.47-.56l-1.27-2.84h-7.45l-1.27,2.84c-.11.25-.27.44-.47.56-.2.12-.42.18-.66.18-.33,0-.62-.11-.89-.34-.27-.23-.4-.5-.4-.83,0-.18.04-.37.13-.55l5.84-12.55c.13-.28.32-.5.58-.65.26-.15.54-.22.84-.22s.57.07.84.22c.26.15.45.36.58.65l5.86,12.55c.08.18.13.37.13.55ZM608.41,52.93l-2.79-6.29-2.79,6.29h5.59Z"/>
          <path class="cls-1" d="M631.48,57.56c0,.32-.13.59-.39.8s-.57.32-.92.32c-.23,0-.44-.05-.65-.16-.21-.11-.38-.26-.52-.48l-2.81-4.27c-.28-.45-.58-.77-.9-.95-.32-.18-.73-.27-1.24-.27h-2.07v4.74c0,.42-.12.76-.36,1.01-.24.25-.56.37-.97.37s-.74-.12-.98-.37c-.25-.25-.37-.58-.37-1.01v-12.38c0-.41.12-.73.35-.95s.55-.34.96-.34h5.29c1.69,0,2.98.38,3.86,1.13.88.76,1.32,1.85,1.32,3.27,0,1.16-.33,2.11-.98,2.85-.66.74-1.58,1.22-2.78,1.43.41.1.77.27,1.08.53.31.25.61.61.91,1.06l1.93,2.94c.17.25.25.5.25.74ZM627.78,49.87c.48-.39.72-.98.72-1.79s-.24-1.41-.72-1.79c-.48-.37-1.23-.56-2.26-.56h-3.56v4.72h3.56c1.03,0,1.78-.19,2.26-.58Z"/>
          <path class="cls-1" d="M638.6,58.28c-.25-.25-.37-.59-.37-1v-12.42c0-.41.12-.74.37-.98.25-.25.57-.37.98-.37s.76.12,1.01.37.37.57.37.98v12.42c0,.41-.12.74-.37,1-.25.25-.58.38-1.01.38s-.74-.13-.98-.38Z"/>
          <path class="cls-1" d="M662.06,57.46c0,.33-.13.6-.39.83s-.56.34-.9.34c-.23,0-.44-.06-.63-.18-.2-.12-.35-.31-.47-.56l-1.27-2.84h-7.45l-1.27,2.84c-.11.25-.27.44-.47.56-.2.12-.42.18-.66.18-.33,0-.62-.11-.89-.34-.27-.23-.4-.5-.4-.83,0-.18.04-.37.13-.55l5.84-12.55c.13-.28.32-.5.58-.65.26-.15.54-.22.84-.22s.57.07.84.22c.26.15.45.36.58.65l5.86,12.55c.08.18.13.37.13.55ZM657.47,52.93l-2.79-6.29-2.79,6.29h5.59Z"/>
        </g>
      </g>
      <g>
        <polygon class="cls-2" points="136.85 157.55 136.41 158.3 129.96 147.65 130.4 146.9 136.85 157.55"/>
        <polygon class="cls-3" points="136.41 158.3 136.16 158.71 41.54 158.71 40.43 156.87 47.71 147.57 47.78 147.69 129.93 147.69 129.96 147.65 136.41 158.3"/>
        <polygon class="cls-2" points="48.1 11.01 47.2 11.01 40.54 0 41.44 0 48.1 11.01"/>
        <polygon class="cls-2" points="133.11 91.79 129.14 98.67 125.97 98.67 132.33 87.65 135.49 87.65 133.88 90.44 133.11 91.79"/>
        <polygon class="cls-3" points="47.2 11.01 46.69 11.01 6.42 78.16 0 67.45 40.45 0 40.54 0 47.2 11.01"/>
        <polygon class="cls-2" points="144.91 11.01 48.1 11.01 41.44 0 138.31 0 144.91 11.01"/>
        <polygon class="cls-2" points="47.71 147.57 40.43 156.87 0 89.42 6.42 78.72 47.71 147.57"/>
        <polygon class="cls-2" points="178.24 88.55 136.85 157.55 130.4 146.9 159.33 98.67 158.74 98.67 177.74 87.7 178.24 88.55"/>
        <polygon class="cls-3" points="177.74 87.7 158.74 98.67 129.14 98.67 133.11 91.79 133.88 90.44 135.49 87.65 177.71 87.65 177.74 87.7"/>
        <path class="cls-1" d="M114.71,35.06h-51.14l-.44.76-.44.76-24.74,42.84.88,1.37,5.57,9.64.78,1.35,9.89,17.11.79,1.37,7.71,13.37h51.14l.35-.59.43-.76,6.95-12.02.78-1.37,5.92-10.24,3.97-6.88.78-1.35,1.61-2.78,4.78-8.29-25.56-44.3ZM122.43,90.44l-.79,1.35-9.87,17.11-.79,1.37-1.34,2.33-.44.76-.21.37h-39.67l-1.99-3.45-.79-1.37-9.87-17.11-.79-1.35-6.01-10.42-.4-.67,19.11-33.07.44-.76.3-.53h39.67l19.85,34.38-6.4,11.07Z"/>
      </g>
    </g>
  </g>
</svg>