<svg height="512" viewBox="0 0 176 176" width="512" xmlns="http://www.w3.org/2000/svg"><g id="Layer_2" data-name="Layer 2"><g id="_08.whatsapp" data-name="08.whatsapp"><path d="m118.43 57.58-.22-.23a42.72 42.72 0 0 0 -68.28 49.65l1.88 3.7-3.5 17-.05.23 16.89-4 3.85 1.89a42.78 42.78 0 0 0 49.22-8 42.85 42.85 0 0 0 12.51-30.22 42.41 42.41 0 0 0 -12.3-30.02zm-1.72 47.71c-2.07 3.26-5.34 7.25-9.45 8.24-7.2 1.75-18.25.06-32-12.75l-.17-.17c-12.09-11.2-15.23-20.52-14.47-27.93.42-4.21 3.92-8 6.87-10.48a3.93 3.93 0 0 1 6.15 1.4l4.45 10.06a3.91 3.91 0 0 1 -.49 4l-2.25 2.92a3.87 3.87 0 0 0 -.35 4.27c1.26 2.2 4.28 5.45 7.63 8.48 3.76 3.39 7.93 6.5 10.57 7.57a3.86 3.86 0 0 0 4.19-.89l2.61-2.63a4 4 0 0 1 3.9-1l10.57 3a3.94 3.94 0 0 1 2.24 5.91z"/><path d="m173 31.48a32 32 0 0 0 -28.48-28.48 530 530 0 0 0 -113 0 32 32 0 0 0 -28.52 28.48 532.59 532.59 0 0 0 0 113 32 32 0 0 0 28.48 28.52 530 530 0 0 0 113 0 32 32 0 0 0 28.52-28.48 532.59 532.59 0 0 0 0-113.04zm-30.47 57.82a54.57 54.57 0 0 1 -78.82 47.11l-27.55 6.59a2.13 2.13 0 0 1 -2.57-2.5l5.79-28.11a54.56 54.56 0 1 1 103.15-23z"/></g></g></svg>