<svg width="24" height="17" viewBox="0 0 24 17" fill="none" xmlns="http://www.w3.org/2000/svg">
<path d="M12 2.05176e-10C12.0575 7.59944e-06 19.518 0.00181691 21.3896 0.513672C22.4174 0.790476 23.2281 1.60104 23.5049 2.62891C24.019 4.50682 24 8.42188 24 8.42188C24 8.45172 23.9981 12.3235 23.5059 14.1943C23.229 15.2223 22.4178 16.0329 21.3896 16.3096C19.5157 16.8026 12.0387 16.8037 12 16.8037C12 16.8037 4.50706 16.804 2.60938 16.29C1.58142 16.0132 0.771054 15.2026 0.494141 14.1748C0.00289685 12.3276 1.75242e-05 8.44861 0 8.40234C0 8.40234 -5.48296e-05 4.50682 0.494141 2.62891C0.770924 1.60116 1.60135 0.770773 2.60938 0.494141C4.48752 -0.00023245 12 2.05176e-10 12 2.05176e-10ZM9 12L15.2471 8.40234L9 4.80371V12Z" fill="white"/>
</svg>
