<?xml version="1.0" encoding="UTF-8"?>
<svg id="Camada_2" data-name="Camada 2" xmlns="http://www.w3.org/2000/svg" viewBox="0 0 275.92 245.69">
  <defs>
    <style>
      .cls-1 {
        fill: #fff;
      }

      .cls-2 {
        fill: #f3d44b;
      }

      .cls-3 {
        fill: #caa928;
      }
    </style>
  </defs>
  <g id="Camada_1-2" data-name="Camada 1">
    <g>
      <polygon class="cls-2" points="211.85 243.9 211.16 245.05 201.18 228.57 201.86 227.41 211.85 243.9"/>
      <polygon class="cls-3" points="211.16 245.05 210.79 245.69 64.31 245.69 62.59 242.84 73.85 228.45 73.97 228.64 201.13 228.64 201.18 228.57 211.16 245.05"/>
      <polygon class="cls-2" points="74.46 17.05 73.07 17.05 62.76 0 64.15 0 74.46 17.05"/>
      <polygon class="cls-2" points="206.05 142.1 199.91 152.74 195.01 152.74 204.85 135.69 209.75 135.69 207.26 140 206.05 142.1"/>
      <polygon class="cls-3" points="73.07 17.05 72.27 17.05 9.94 121 0 104.42 62.62 0 62.76 0 73.07 17.05"/>
      <polygon class="cls-2" points="224.33 17.05 74.46 17.05 64.15 0 214.11 0 224.33 17.05"/>
      <polygon class="cls-2" points="73.85 228.45 62.59 242.84 0 138.42 9.94 121.87 73.85 228.45"/>
      <polygon class="cls-2" points="275.92 137.08 211.85 243.9 201.86 227.41 246.65 152.74 245.73 152.74 275.15 135.76 275.92 137.08"/>
      <polygon class="cls-3" points="275.15 135.76 245.73 152.74 199.91 152.74 206.05 142.1 207.26 140 209.75 135.69 275.1 135.69 275.15 135.76"/>
      <path class="cls-1" d="M177.58,54.28h-79.17l-.68,1.18-.68,1.18-38.29,66.31,1.37,2.12,8.62,14.93,1.2,2.1,15.31,26.49,1.22,2.12,11.94,20.7h79.17l.54-.92.66-1.18,10.76-18.6,1.2-2.12,9.16-15.85,6.15-10.64,1.2-2.1,2.5-4.31,7.39-12.83-39.56-68.58ZM189.52,140l-1.22,2.1-15.28,26.49-1.22,2.12-2.07,3.6-.68,1.18-.33.57h-61.42l-3.09-5.35-1.22-2.12-15.28-26.49-1.22-2.1-9.3-16.13-.61-1.04,29.58-51.2.68-1.18.47-.82h61.42l30.73,53.22-9.91,17.14Z"/>
    </g>
  </g>
</svg>